<?xml version="1.0" encoding="UTF-8" standalone="no"?>
<!DOCTYPE score-partwise
PUBLIC "-//Recordare//DTD MusicXML 1.0 Partwise//EN"
"http://www.musicxml.org/dtds/partwise.dtd">


<score-partwise>
	<identification>
		<encoding>
			<software>1</software>
			<encoding-description>2</encoding-description>
		</encoding>
	</identification>

	<part-list>
		<score-part id="P1">
			<part-name>Part_1</part-name>
		</score-part>
		<score-part id="P2">
			<part-name>Part_2</part-name>
		</score-part>
	</part-list>

	<part id="P1">
		<measure number = "1">
			<attributes>
				<divisions>8</divisions>
				<key>
					<fifths>0</fifths>
				</key>
				<time symbol="normal">
					<beats>3</beats>
					<beat-type>8</beat-type>
				</time>
				<staves>1</staves>
				<clef number = "1">
					<sign>G</sign>
					<line>2</line>
					<clef-octave-change>0</clef-octave-change>
				</clef>
			</attributes>
			<direction placement="below">
				<direction-type>
					<dynamics default-y="-93">
						<pp/>
					</dynamics>
				</direction-type>
			</direction>
			<note>
				<pitch>
					<step>E</step>
					<octave>5</octave>
				</pitch>
				<duration>2</duration>
				<voice>1</voice>
				<type>16th</type>
				<stem>down</stem>
				<beam number="1">begin</beam>
				<beam number="2">begin</beam>
				<notations>
					<slur type="start" number="1" orientation="over"/>
				</notations>
			</note>
			<note>
				<pitch>
					<step>D</step>
					<alter>1</alter>
					<octave>5</octave>
				</pitch>
				<duration>2</duration>
				<voice>1</voice>
				<type>16th</type>
				<accidental>sharp</accidental>
				<stem>down</stem>
				<beam number="1">end</beam>
				<beam number="2">end</beam>
				<notations>
				</notations>
			</note>
		</measure>
<!--===================================================-->
		<measure number = "2">
			<direction placement="below">
				<direction-type>
					<wedge type="crescendo" number="1" default-y="-92"/>
				</direction-type>
			</direction>
			<note>
				<pitch>
					<step>E</step>
					<octave>5</octave>
				</pitch>
				<duration>2</duration>
				<voice>1</voice>
				<type>16th</type>
				<stem>down</stem>
				<beam number="1">begin</beam>
				<beam number="2">begin</beam>
				<notations>
				</notations>
			</note>
			<note>
				<pitch>
					<step>D</step>
					<alter>1</alter>
					<octave>5</octave>
				</pitch>
				<duration>2</duration>
				<voice>1</voice>
				<type>16th</type>
				<accidental>sharp</accidental>
				<stem>down</stem>
				<beam number="1">continue</beam>
				<beam number="2">continue</beam>
				<notations>
				</notations>
			</note>
			<note>
				<pitch>
					<step>E</step>
					<octave>5</octave>
				</pitch>
				<duration>2</duration>
				<voice>1</voice>
				<type>16th</type>
				<stem>down</stem>
				<beam number="1">continue</beam>
				<beam number="2">continue</beam>
				<notations>
				</notations>
			</note>
			<direction placement="below">
				<direction-type>
					<wedge type="stop" number="1" default-y="-92"/>
				</direction-type>
			</direction>
			<direction placement="below">
				<direction-type>
					<wedge type="diminuendo" number="1" default-y="-90"/>
				</direction-type>
			</direction>
			<note>
				<pitch>
					<step>B</step>
					<octave>4</octave>
				</pitch>
				<duration>2</duration>
				<voice>1</voice>
				<type>16th</type>
				<stem>down</stem>
				<beam number="1">continue</beam>
				<beam number="2">continue</beam>
				<notations>
				</notations>
			</note>
			<note>
				<pitch>
					<step>D</step>
					<octave>5</octave>
				</pitch>
				<duration>2</duration>
				<voice>1</voice>
				<type>16th</type>
				<accidental>natural</accidental>
				<stem>down</stem>
				<beam number="1">continue</beam>
				<beam number="2">continue</beam>
				<notations>
				</notations>
			</note>
			<note>
				<pitch>
					<step>C</step>
					<octave>5</octave>
				</pitch>
				<duration>2</duration>
				<voice>1</voice>
				<type>16th</type>
				<stem>down</stem>
				<beam number="1">end</beam>
				<beam number="2">end</beam>
				<notations>
				</notations>
			</note>
			<direction placement="below">
				<direction-type>
					<wedge type="stop" number="1" default-y="-90"/>
				</direction-type>
			</direction>
		</measure>
<!--===================================================-->
		<measure number = "3">
			<note>
				<pitch>
					<step>A</step>
					<octave>4</octave>
				</pitch>
				<duration>4</duration>
				<voice>1</voice>
				<type>eighth</type>
				<stem>up</stem>
				<notations>
					<slur type="stop" number="1" orientation="over"/>
				</notations>
			</note>
			<note>
				<rest/>
				<duration>2</duration>
				<voice>1</voice>
				<type>16th</type>
				<notations>
				</notations>
			</note>
			<note>
				<pitch>
					<step>C</step>
					<octave>4</octave>
				</pitch>
				<duration>2</duration>
				<voice>1</voice>
				<type>16th</type>
				<stem>up</stem>
				<beam number="1">begin</beam>
				<beam number="2">begin</beam>
				<notations>
					<slur type="start" number="1" orientation="over"/>
				</notations>
			</note>
			<note>
				<pitch>
					<step>E</step>
					<octave>4</octave>
				</pitch>
				<duration>2</duration>
				<voice>1</voice>
				<type>16th</type>
				<stem>up</stem>
				<beam number="1">continue</beam>
				<beam number="2">continue</beam>
				<notations>
				</notations>
			</note>
			<note>
				<pitch>
					<step>A</step>
					<octave>4</octave>
				</pitch>
				<duration>2</duration>
				<voice>1</voice>
				<type>16th</type>
				<stem>up</stem>
				<beam number="1">end</beam>
				<beam number="2">end</beam>
				<notations>
				</notations>
			</note>
		</measure>
<!--===================================================-->
		<measure number = "4">
			<note>
				<pitch>
					<step>B</step>
					<octave>4</octave>
				</pitch>
				<duration>4</duration>
				<voice>1</voice>
				<type>eighth</type>
				<stem>down</stem>
				<notations>
					<slur type="stop" number="1" orientation="over"/>
				</notations>
			</note>
			<note>
				<pitch>
					<step>A</step>
					<octave>4</octave>
				</pitch>
				<duration>8</duration>
				<voice>1</voice>
				<type>quarter</type>
				<stem>up</stem>
				<notations>
				</notations>
			</note>
			<note>
				<chord/>
				<pitch>
					<step>F</step>
					<octave>4</octave>
				</pitch>
				<duration>8</duration>
				<voice>1</voice>
				<type>quarter</type>
				<stem>up</stem>
				<notations>
				</notations>
			</note>
		</measure>
<!--===================================================-->
		<measure number = "5">
			<forward>
				<duration>12</duration>
				<voice>1</voice>
				<staff>1</staff>
			</forward>
			<barline location="right">
				<bar-style>none</bar-style>
			</barline>
		</measure>
<!--===================================================-->
		<measure number = "6">
			<print new-system="yes"/>
			<direction placement="below">
				<direction-type>
					<wedge type="crescendo" number="1" default-y="-93"/>
				</direction-type>
			</direction>
			<note>
				<pitch>
					<step>E</step>
					<octave>5</octave>
				</pitch>
				<duration>2</duration>
				<voice>1</voice>
				<type>16th</type>
				<stem>down</stem>
				<beam number="1">begin</beam>
				<beam number="2">begin</beam>
				<notations>
				</notations>
			</note>
			<note>
				<pitch>
					<step>D</step>
					<alter>1</alter>
					<octave>5</octave>
				</pitch>
				<duration>2</duration>
				<voice>1</voice>
				<type>16th</type>
				<accidental>sharp</accidental>
				<stem>down</stem>
				<beam number="1">continue</beam>
				<beam number="2">continue</beam>
				<notations>
				</notations>
			</note>
			<direction placement="below">
				<direction-type>
					<wedge type="diminuendo" number="2" default-y="-92"/>
				</direction-type>
			</direction>
			<note>
				<pitch>
					<step>E</step>
					<octave>5</octave>
				</pitch>
				<duration>2</duration>
				<voice>1</voice>
				<type>16th</type>
				<stem>down</stem>
				<beam number="1">continue</beam>
				<beam number="2">continue</beam>
				<notations>
				</notations>
			</note>
			<direction placement="below">
				<direction-type>
					<wedge type="stop" number="1" default-y="-93"/>
				</direction-type>
			</direction>
			<note>
				<pitch>
					<step>B</step>
					<octave>4</octave>
				</pitch>
				<duration>2</duration>
				<voice>1</voice>
				<type>16th</type>
				<stem>down</stem>
				<beam number="1">continue</beam>
				<beam number="2">continue</beam>
				<notations>
				</notations>
			</note>
			<note>
				<pitch>
					<step>D</step>
					<alter>1</alter>
					<octave>5</octave>
				</pitch>
				<duration>2</duration>
				<voice>1</voice>
				<type>16th</type>
				<stem>down</stem>
				<beam number="1">continue</beam>
				<beam number="2">continue</beam>
				<notations>
				</notations>
			</note>
			<note>
				<pitch>
					<step>C</step>
					<octave>5</octave>
				</pitch>
				<duration>2</duration>
				<voice>1</voice>
				<type>16th</type>
				<stem>down</stem>
				<beam number="1">end</beam>
				<beam number="2">end</beam>
				<notations>
				</notations>
			</note>
			<direction placement="below">
				<direction-type>
					<wedge type="stop" number="2" default-y="-92"/>
				</direction-type>
			</direction>
		</measure>
<!--===================================================-->
		<measure number = "7">
			<note>
				<pitch>
					<step>A</step>
					<octave>4</octave>
				</pitch>
				<duration>4</duration>
				<voice>1</voice>
				<type>eighth</type>
				<stem>up</stem>
				<notations>
				</notations>
			</note>
			<note>
				<rest/>
				<duration>2</duration>
				<voice>1</voice>
				<type>16th</type>
				<notations>
				</notations>
			</note>
			<note>
				<pitch>
					<step>C</step>
					<octave>4</octave>
				</pitch>
				<duration>2</duration>
				<voice>1</voice>
				<type>16th</type>
				<stem>up</stem>
				<beam number="1">begin</beam>
				<beam number="2">begin</beam>
				<notations>
					<slur type="start" number="1" orientation="under"/>
				</notations>
			</note>
			<note>
				<pitch>
					<step>E</step>
					<octave>4</octave>
				</pitch>
				<duration>2</duration>
				<voice>1</voice>
				<type>16th</type>
				<stem>up</stem>
				<beam number="1">continue</beam>
				<beam number="2">continue</beam>
				<notations>
				</notations>
			</note>
			<note>
				<pitch>
					<step>A</step>
					<octave>4</octave>
				</pitch>
				<duration>2</duration>
				<voice>1</voice>
				<type>16th</type>
				<stem>up</stem>
				<beam number="1">end</beam>
				<beam number="2">end</beam>
				<notations>
				</notations>
			</note>
		</measure>
<!--===================================================-->
		<measure number = "8">
			<note>
				<pitch>
					<step>B</step>
					<octave>4</octave>
				</pitch>
				<duration>4</duration>
				<voice>1</voice>
				<type>eighth</type>
				<stem>down</stem>
				<notations>
					<slur type="stop" number="1" orientation="under"/>
				</notations>
			</note>
			<note>
				<rest/>
				<duration>2</duration>
				<voice>1</voice>
				<type>16th</type>
				<notations>
				</notations>
			</note>
			<note>
				<pitch>
					<step>E</step>
					<octave>4</octave>
				</pitch>
				<duration>2</duration>
				<voice>1</voice>
				<type>16th</type>
				<stem>up</stem>
				<beam number="1">begin</beam>
				<beam number="2">begin</beam>
				<notations>
					<slur type="start" number="1" orientation="under"/>
				</notations>
			</note>
			<note>
				<pitch>
					<step>C</step>
					<octave>5</octave>
				</pitch>
				<duration>2</duration>
				<voice>1</voice>
				<type>16th</type>
				<stem>up</stem>
				<beam number="1">continue</beam>
				<beam number="2">continue</beam>
				<notations>
				</notations>
			</note>
			<note>
				<pitch>
					<step>B</step>
					<octave>4</octave>
				</pitch>
				<duration>2</duration>
				<voice>1</voice>
				<type>16th</type>
				<stem>up</stem>
				<beam number="1">end</beam>
				<beam number="2">end</beam>
				<notations>
				</notations>
			</note>
		</measure>
<!--===================================================-->
		<measure number = "9">
			<direction placement="below">
				<direction-type>
					<dynamics default-y="-26">
						<mf/>
					</dynamics>
				</direction-type>
				<direction-type>
					<wedge type="crescendo" number="1" default-y="-83"/>
				</direction-type>
			</direction>
			<note>
				<pitch>
					<step>A</step>
					<octave>4</octave>
				</pitch>
				<duration>4</duration>
				<voice>1</voice>
				<type>eighth</type>
				<stem>up</stem>
				<notations>
				</notations>
			</note>
			<note>
				<chord/>
				<pitch>
					<step>C</step>
					<octave>4</octave>
				</pitch>
				<duration>4</duration>
				<voice>1</voice>
				<type>eighth</type>
				<stem>up</stem>
				<notations>
					<slur type="stop" number="1" orientation="under"/>
				</notations>
			</note>
			<direction placement="below">
				<direction-type>
					<wedge type="stop" number="1" default-y="-83"/>
				</direction-type>
			</direction>
			<note>
				<rest/>
				<duration>4</duration>
				<voice>1</voice>
				<type>eighth</type>
				<notations>
				</notations>
			</note>
			<note>
				<rest/>
				<duration>4</duration>
				<voice>1</voice>
				<type>eighth</type>
				<notations>
				</notations>
			</note>
			<barline>
				<bar-style>light-heavy</bar-style>
			</barline>
		</measure>
<!--===================================================-->
		<measure number = "10">
			<forward>
				<duration>12</duration>
				<voice>1</voice>
				<staff>1</staff>
			</forward>
			<barline location="right">
				<bar-style>none</bar-style>
			</barline>
		</measure>
<!--===================================================-->
	</part>

	<part id="P2">
		<measure number = "1">
			<attributes>
				<divisions>8</divisions>
				<key>
					<fifths>0</fifths>
				</key>
				<time symbol="normal">
					<beats>3</beats>
					<beat-type>8</beat-type>
				</time>
				<staves>1</staves>
				<clef number = "1">
					<sign>F</sign>
					<line>4</line>
					<clef-octave-change>0</clef-octave-change>
				</clef>
			</attributes>
			<note>
				<rest/>
				<duration>4</duration>
				<voice>1</voice>
				<type>eighth</type>
				<notations>
				</notations>
			</note>
		</measure>
<!--===================================================-->
		<measure number = "2">
			<note>
				<rest>
					<display-step>F</display-step>
					<display-octave>3</display-octave>
				</rest>
				<duration>12</duration>
				<voice>1</voice>
				<notations>
				</notations>
			</note>
		</measure>
<!--===================================================-->
		<measure number = "3">
			<note>
				<pitch>
					<step>A</step>
					<octave>2</octave>
				</pitch>
				<duration>2</duration>
				<voice>1</voice>
				<type>16th</type>
				<stem>down</stem>
				<beam number="1">begin</beam>
				<beam number="2">begin</beam>
				<notations>
					<slur type="start" number="1" orientation="over"/>
				</notations>
			</note>
			<note>
				<pitch>
					<step>E</step>
					<octave>3</octave>
				</pitch>
				<duration>2</duration>
				<voice>1</voice>
				<type>16th</type>
				<stem>down</stem>
				<beam number="1">continue</beam>
				<beam number="2">continue</beam>
				<notations>
				</notations>
			</note>
			<note>
				<pitch>
					<step>A</step>
					<octave>3</octave>
				</pitch>
				<duration>2</duration>
				<voice>1</voice>
				<type>16th</type>
				<stem>down</stem>
				<beam number="1">end</beam>
				<beam number="2">end</beam>
				<notations>
					<slur type="stop" number="1" orientation="over"/>
				</notations>
			</note>
			<note>
				<rest/>
				<duration>2</duration>
				<voice>1</voice>
				<type>16th</type>
				<notations>
				</notations>
			</note>
			<note>
				<rest/>
				<duration>4</duration>
				<voice>1</voice>
				<type>eighth</type>
				<notations>
				</notations>
			</note>
		</measure>
<!--===================================================-->
		<measure number = "4">
			<note>
				<pitch>
					<step>E</step>
					<octave>2</octave>
				</pitch>
				<duration>2</duration>
				<voice>1</voice>
				<type>16th</type>
				<stem>up</stem>
				<beam number="1">begin</beam>
				<beam number="2">begin</beam>
				<notations>
					<slur type="start" number="1" orientation="under"/>
					<slur type="start" number="2" orientation="under"/>
				</notations>
			</note>
			<note>
				<pitch>
					<step>E</step>
					<octave>3</octave>
				</pitch>
				<duration>2</duration>
				<voice>1</voice>
				<type>16th</type>
				<stem>up</stem>
				<beam number="1">continue</beam>
				<beam number="2">continue</beam>
				<notations>
					<slur type="stop" number="2" orientation="under"/>
				</notations>
			</note>
			<note>
				<pitch>
					<step>G</step>
					<octave>3</octave>
				</pitch>
				<duration>2</duration>
				<voice>1</voice>
				<type>16th</type>
				<stem>up</stem>
				<beam number="1">end</beam>
				<beam number="2">end</beam>
				<notations>
					<slur type="stop" number="1" orientation="under"/>
				</notations>
			</note>
			<note>
				<rest/>
				<duration>2</duration>
				<voice>1</voice>
				<type>16th</type>
				<notations>
				</notations>
			</note>
			<note>
				<rest/>
				<duration>4</duration>
				<voice>1</voice>
				<type>eighth</type>
				<notations>
				</notations>
			</note>
		</measure>
<!--===================================================-->
		<measure number = "5">
			<forward>
				<duration>12</duration>
				<voice>1</voice>
				<staff>1</staff>
			</forward>
			<barline location="right">
				<bar-style>none</bar-style>
			</barline>
		</measure>
<!--===================================================-->
		<measure number = "6">
			<print new-system="yes"/>
			<note>
				<rest>
					<display-step>F</display-step>
					<display-octave>3</display-octave>
				</rest>
				<duration>12</duration>
				<voice>1</voice>
				<notations>
				</notations>
			</note>
		</measure>
<!--===================================================-->
		<measure number = "7">
			<note>
				<pitch>
					<step>E</step>
					<octave>3</octave>
				</pitch>
				<duration>8</duration>
				<voice>1</voice>
				<type>quarter</type>
				<stem>down</stem>
				<notations>
				</notations>
			</note>
			<forward>
				<duration>4</duration>
				<voice>1</voice>
				<staff>1</staff>
			</forward>
		</measure>
<!--===================================================-->
		<measure number = "8">
			<note>
				<pitch>
					<step>E</step>
					<octave>2</octave>
				</pitch>
				<duration>2</duration>
				<voice>1</voice>
				<type>16th</type>
				<stem>up</stem>
				<beam number="1">begin</beam>
				<beam number="2">begin</beam>
				<notations>
					<slur type="start" number="1" orientation="under"/>
				</notations>
			</note>
			<note>
				<pitch>
					<step>E</step>
					<octave>3</octave>
				</pitch>
				<duration>2</duration>
				<voice>1</voice>
				<type>16th</type>
				<stem>up</stem>
				<beam number="1">continue</beam>
				<beam number="2">continue</beam>
				<notations>
				</notations>
			</note>
			<note>
				<pitch>
					<step>G</step>
					<octave>3</octave>
				</pitch>
				<duration>2</duration>
				<voice>1</voice>
				<type>16th</type>
				<stem>up</stem>
				<beam number="1">end</beam>
				<beam number="2">end</beam>
				<notations>
					<slur type="stop" number="1" orientation="under"/>
				</notations>
			</note>
			<note>
				<rest/>
				<duration>2</duration>
				<voice>1</voice>
				<type>16th</type>
				<notations>
				</notations>
			</note>
			<note>
				<rest/>
				<duration>4</duration>
				<voice>1</voice>
				<type>eighth</type>
				<notations>
				</notations>
			</note>
		</measure>
<!--===================================================-->
		<measure number = "9">
			<note>
				<pitch>
					<step>A</step>
					<octave>2</octave>
				</pitch>
				<duration>2</duration>
				<voice>1</voice>
				<type>16th</type>
				<stem>down</stem>
				<beam number="1">begin</beam>
				<beam number="2">begin</beam>
				<notations>
					<slur type="start" number="1" orientation="over"/>
				</notations>
			</note>
			<note>
				<pitch>
					<step>E</step>
					<octave>3</octave>
				</pitch>
				<duration>2</duration>
				<voice>1</voice>
				<type>16th</type>
				<stem>down</stem>
				<beam number="1">continue</beam>
				<beam number="2">continue</beam>
				<notations>
				</notations>
			</note>
			<note>
				<pitch>
					<step>A</step>
					<octave>3</octave>
				</pitch>
				<duration>2</duration>
				<voice>1</voice>
				<type>16th</type>
				<stem>down</stem>
				<beam number="1">end</beam>
				<beam number="2">end</beam>
				<notations>
					<slur type="stop" number="1" orientation="over"/>
				</notations>
			</note>
			<note>
				<rest/>
				<duration>2</duration>
				<voice>1</voice>
				<type>16th</type>
				<notations>
				</notations>
			</note>
			<forward>
				<duration>4</duration>
				<voice>1</voice>
				<staff>1</staff>
			</forward>
			<barline>
				<bar-style>light-heavy</bar-style>
			</barline>
		</measure>
<!--===================================================-->
		<measure number = "10">
			<note>
				<pitch>
					<step>A</step>
					<octave>2</octave>
				</pitch>
				<duration>8</duration>
				<voice>1</voice>
				<type>quarter</type>
				<stem>down</stem>
				<notations>
				</notations>
			</note>
			<forward>
				<duration>4</duration>
				<voice>1</voice>
				<staff>1</staff>
			</forward>
			<barline location="right">
				<bar-style>none</bar-style>
			</barline>
		</measure>
<!--===================================================-->
	</part>

</score-partwise>
